<svg width="14" height="15" viewBox="0 0 14 15" fill="none" xmlns="http://www.w3.org/2000/svg">
<g clip-path="url(#clip0_7210_918)">
<path d="M6.26628 5.99989H7.39961V4.29989H9.09961V3.16655H7.39961V1.46655H6.26628V3.16655H4.56628V4.29989H6.26628V5.99989ZM3.99961 11.0999C3.37628 11.0999 2.87194 11.6099 2.87194 12.2332C2.87194 12.8566 3.37628 13.3666 3.99961 13.3666C4.62294 13.3666 5.13294 12.8566 5.13294 12.2332C5.13294 11.6099 4.62294 11.0999 3.99961 11.0999ZM9.66628 11.0999C9.04294 11.0999 8.53861 11.6099 8.53861 12.2332C8.53861 12.8566 9.04294 13.3666 9.66628 13.3666C10.2896 13.3666 10.7996 12.8566 10.7996 12.2332C10.7996 11.6099 10.2896 11.0999 9.66628 11.0999ZM4.09594 9.25822L4.11294 9.19022L4.62294 8.26655H8.84461C9.26961 8.26655 9.64361 8.03422 9.83628 7.68289L12.0236 3.71055L11.0376 3.16655H11.0319L10.4086 4.29989L8.84461 7.13322H4.86661L4.79294 6.98022L3.52361 4.29989L2.98528 3.16655L2.45261 2.03322H0.599609V3.16655H1.73294L3.77294 7.46755L3.00794 8.85589C2.91728 9.01455 2.86628 9.20155 2.86628 9.39989C2.86628 10.0232 3.37628 10.5332 3.99961 10.5332H10.7996V9.39989H4.23761C4.16394 9.39989 4.09594 9.33755 4.09594 9.25822Z" fill="white"/>
</g>
<defs>
<clipPath id="clip0_7210_918">
<rect width="13.6" height="13.6" fill="white" transform="translate(0.0332031 0.899902)"/>
</clipPath>
</defs>
</svg>
